<svg width="68" height="72" viewBox="0 0 68 72" fill="none" xmlns="http://www.w3.org/2000/svg">
<path d="M66 26.0305L60.4013 23.9864L52.8951 14.4034L52.386 5.1267L34.4464 0L32.2831 4.51644H26.3032L24.7761 10.3753L20.9586 13.0609L18.0322 19.7747L5.56338 22.9487L7.59873 35.5213L2 40.0377L4.29031 47.9719L14.3418 44.3104L27.7025 46.5068L31.0109 49.1925L43.8617 50.413L52.768 52L53.7861 44.676L60.2751 42.1123L56.9667 32.4691L64.8548 32.3472L66 26.0305ZM61.6125 32.0779L54.4446 32.1858L57.4508 40.7229L51.5542 42.9926L50.6297 49.4766L42.5354 48.0716L30.859 46.9911L27.8527 44.6134L15.7135 42.6682L6.57977 45.9105L4.49891 38.8863L9.58602 34.8879L7.73608 23.7574L19.0666 20.9474L21.7252 15.0037L25.1933 12.6261L26.5805 7.43928H32.0144L33.9803 3.44086L50.282 7.97954L50.7447 16.1921L57.5658 24.6757L62.653 26.4859L61.6125 32.0779Z" fill="url(#paint0_linear_491_2083)"/>
<path opacity="0.85" d="M58.381 26.0217L54.1158 24.5453L48.3963 17.6249L48.0082 10.9245L34.3395 7.22217L32.6912 10.4837H28.1353L26.9717 14.7156L24.0632 16.6554L21.8335 21.5038L12.3335 23.7958L13.8844 32.876L9.61914 36.1375L11.3641 41.8676L19.0225 39.2226L29.2014 40.8094L31.7217 42.7492L41.5124 43.6309L48.2988 44.7777L49.0742 39.4885L54.0183 37.6373L51.498 30.6726L57.5081 30.5848L58.381 26.0217ZM55.0374 30.3898L49.5758 30.4679L51.8657 36.634L47.3736 38.2732L46.6691 42.9564L40.503 41.9417L31.6065 41.1616L29.3166 39.4442L20.0674 38.0395L13.1081 40.3807L11.5227 35.3074L15.3989 32.4198L13.9898 24.3809L22.6223 22.3516L24.6481 18.0593L27.2907 16.3419L28.348 12.5952H32.4882L33.9859 9.7076L46.4059 12.9853L46.7586 18.9168L51.9561 25.0433L55.8324 26.3505L55.0374 30.3898Z" fill="url(#paint1_linear_491_2083)"/>
<path opacity="0.7" d="M49.238 26.0152L46.4387 24.993L42.6849 20.2022L42.4302 15.5636L33.4602 13L32.3787 15.2584H29.389L28.6257 18.1881L26.7174 19.5308L25.2543 22.8876L19.0193 24.4746L20.0373 30.7603L17.238 33.0187L18.383 36.9859L23.4087 35.1554L30.0888 36.2537L31.7432 37.5964L38.1686 38.2069L42.6222 39L43.1308 35.338L46.3753 34.0562L44.7209 29.235L48.6651 29.1741L49.238 26.0152ZM47.0442 29.0387L43.4599 29.0924L44.9631 33.3608L42.0151 34.4952L41.5525 37.7374L37.5055 37.0348L31.6672 36.4949L30.164 35.306L24.0943 34.3334L19.5271 35.9541L18.4865 32.4419L21.0303 30.4431L20.105 24.8784L25.7704 23.474L27.0999 20.5026L28.8345 19.3137L29.5284 16.7205H32.2451L33.228 14.7216L41.3787 16.9912L41.6101 21.0979L45.0207 25.3391L47.5645 26.2435L47.0442 29.0387Z" fill="url(#paint2_linear_491_2083)"/>
<path d="M1.064 70V60.06H8.232V61.726H2.982V64.12H5.684C6.79467 64.12 7.63 64.3813 8.19 64.904C8.75 65.4267 9.03 66.1267 9.03 67.004C9.03 67.592 8.90867 68.11 8.666 68.558C8.42333 69.006 8.064 69.3607 7.588 69.622C7.112 69.874 6.51 70 5.782 70H1.064ZM2.982 68.334H5.516C5.88933 68.334 6.188 68.2687 6.412 68.138C6.636 67.998 6.79933 67.8253 6.902 67.62C7.00467 67.4053 7.056 67.1813 7.056 66.948C7.056 66.7147 7.00933 66.5 6.916 66.304C6.832 66.0987 6.678 65.9353 6.454 65.814C6.23 65.6833 5.908 65.618 5.488 65.618H2.982V68.334ZM17.2896 68.306V70H10.3876V60.06H17.1636V61.754H12.3196V64.148H16.5056V65.716H12.3196V68.306H17.2896ZM25.1238 70V61.754H22.2118L22.1558 63.434C22.1091 64.75 22.0018 65.8373 21.8338 66.696C21.6658 67.5547 21.4231 68.2313 21.1058 68.726C20.7884 69.2113 20.3871 69.5567 19.9018 69.762C19.4258 69.958 18.8518 70.056 18.1798 70.056V68.39C18.5251 68.39 18.8238 68.3153 19.0758 68.166C19.3278 68.0167 19.5378 67.746 19.7058 67.354C19.8831 66.962 20.0231 66.4067 20.1258 65.688C20.2284 64.9693 20.2984 64.0407 20.3358 62.902L20.4338 60.06H27.0418V70H25.1238ZM36.5657 61.754H33.3877V70H31.4697V61.754H28.2917V60.06H36.5657V61.754ZM37.7997 70V60.06H42.0137C42.471 60.06 42.891 60.1533 43.2737 60.34C43.6563 60.5267 43.9877 60.7787 44.2677 61.096C44.557 61.4133 44.781 61.768 44.9397 62.16C45.0983 62.552 45.1777 62.9533 45.1777 63.364C45.1777 63.924 45.047 64.456 44.7857 64.96C44.5243 65.464 44.165 65.8747 43.7077 66.192C43.2503 66.5093 42.709 66.668 42.0837 66.668H39.7317V70H37.7997ZM39.7317 64.974H41.9717C42.205 64.974 42.415 64.9087 42.6017 64.778C42.7883 64.6473 42.9377 64.4607 43.0497 64.218C43.1617 63.966 43.2177 63.6813 43.2177 63.364C43.2177 63.0187 43.1523 62.7247 43.0217 62.482C42.9003 62.2393 42.737 62.0573 42.5317 61.936C42.3357 61.8147 42.121 61.754 41.8877 61.754H39.7317V64.974ZM46.5923 70V60.06H48.5103V67.284L53.3263 60.06H55.1183V70H53.2003V62.86L48.4403 70H46.5923ZM57.2828 70V60.06H65.3328V70H63.4147V61.754H59.2008V70H57.2828Z" fill="#F5F5F5"/>
<defs>
<linearGradient id="paint0_linear_491_2083" x1="16.1178" y1="5.70634" x2="45.2709" y2="57.7993" gradientUnits="userSpaceOnUse">
<stop stop-color="#344E57"/>
<stop offset="0.239583" stop-color="#56747B"/>
<stop offset="0.802083" stop-color="#8BC63E"/>
<stop offset="1" stop-color="#223222"/>
</linearGradient>
<linearGradient id="paint1_linear_491_2083" x1="20.3755" y1="11.3434" x2="40.8289" y2="49.8991" gradientUnits="userSpaceOnUse">
<stop stop-color="#344E57"/>
<stop offset="0.239583" stop-color="#56747B"/>
<stop offset="0.802083" stop-color="#8BC63E"/>
<stop offset="1" stop-color="#223222"/>
</linearGradient>
<linearGradient id="paint2_linear_491_2083" x1="24.2969" y1="15.8532" x2="38.8735" y2="41.8997" gradientUnits="userSpaceOnUse">
<stop stop-color="#344E57"/>
<stop offset="0.239583" stop-color="#56747B"/>
<stop offset="0.802083" stop-color="#8BC63E"/>
<stop offset="1" stop-color="#223222"/>
</linearGradient>
</defs>
</svg>
