<svg width="100" height="109" viewBox="0 0 100 109" fill="none" xmlns="http://www.w3.org/2000/svg">
<path d="M97.9167 40.833L89.3509 37.6265L77.8668 22.594L77.088 8.04206L49.6413 0L46.3316 7.08477H37.1827L34.8462 16.2753L29.0057 20.4882L24.5284 31.0198L5.45178 35.9987L8.56577 55.7208L0 62.8056L3.50406 75.2517L18.8823 69.508L39.3235 72.9535L44.3852 77.1663L64.0463 79.0809L77.6725 81.5704L79.2301 70.0816L89.1578 66.0599L84.0961 50.9331L96.1646 50.7419L97.9167 40.833ZM91.2041 50.3194L80.2375 50.4886L84.8369 63.8805L75.8153 67.4409L74.4009 77.612L62.0171 75.4081L44.1527 73.7131L39.5533 69.9834L20.981 66.9319L7.00681 72.0181L3.82321 60.9995L11.6062 54.7274L8.77591 37.2674L26.111 32.8594L30.1785 23.5358L35.4845 19.8061L37.6069 11.6697H45.9205L48.9281 5.39755L73.8689 12.5172L74.5768 25.4L85.0129 38.7078L92.7959 41.5474L91.2041 50.3194Z" fill="url(#paint0_linear_376_2083)"/>
<path opacity="0.85" d="M86.2599 40.8193L79.7343 38.5033L70.9838 27.6476L70.3899 17.137L49.4776 11.3292L46.9558 16.4455H39.9854L38.2052 23.0838L33.7554 26.1267L30.3441 33.7322L15.8096 37.3276L18.1823 51.5714L11.6567 56.6876L14.3264 65.6762L26.0434 61.527L41.6165 64.0162L45.4725 67.0592L60.4517 68.4422L70.8346 70.2412L72.021 61.9442L79.5852 59.0403L75.7292 48.1151L84.9244 47.9773L86.2599 40.8193ZM81.1444 47.6713L72.7884 47.794L76.2919 57.4664L69.4192 60.0378L68.3413 67.3841L58.9074 65.7925L45.2962 64.5687L41.7928 61.8747L27.642 59.6712L16.9946 63.3437L14.5691 55.3855L20.4995 50.8559L18.3437 38.2454L31.5508 35.0622L34.6503 28.329L38.6933 25.635L40.3108 19.7577H46.6453L48.9366 15.228L67.9386 20.3696L68.4782 29.6741L76.4302 39.2846L82.3606 41.3351L81.1444 47.6713Z" fill="url(#paint1_linear_376_2083)"/>
<path opacity="0.7" d="M72.2718 40.8091L67.989 39.2055L62.2458 31.6904L61.8561 24.4141L48.1325 20.3926L46.4779 23.9353H41.9038L40.736 28.531L37.8165 30.6373L35.578 35.9029L26.0388 38.3924L27.5963 48.2526L23.3135 51.7952L25.0652 58.0184L32.7543 55.1469L42.9745 56.8698L45.5056 58.9761L55.3361 59.9337L62.15 61.1778L62.9281 55.4334L67.8919 53.4227L65.3608 45.8598L71.3953 45.7643L72.2718 40.8091ZM68.9153 45.5519L63.4315 45.6361L65.7313 52.3318L61.2211 54.1113L60.5133 59.1972L54.3216 58.0951L45.3893 57.2481L43.0895 55.3831L33.8033 53.8575L26.8156 56.3998L25.2236 50.8904L29.1154 47.7549L27.6998 39.0258L36.3676 36.8228L38.4017 32.1617L41.0554 30.2967L42.1172 26.2288H46.2735L47.7773 23.0933L60.2475 26.6535L60.6014 33.0954L65.8195 39.7484L69.7113 41.1672L68.9153 45.5519Z" fill="url(#paint2_linear_376_2083)"/>
<path d="M3.09813 105V90.8H13.3381V93.18H5.83813V96.6H9.69813C11.2848 96.6 12.4781 96.9733 13.2781 97.72C14.0781 98.4667 14.4781 99.4667 14.4781 100.72C14.4781 101.56 14.3048 102.3 13.9581 102.94C13.6115 103.58 13.0981 104.087 12.4181 104.46C11.7381 104.82 10.8781 105 9.83813 105H3.09813ZM5.83813 102.62H9.45813C9.99146 102.62 10.4181 102.527 10.7381 102.34C11.0581 102.14 11.2915 101.893 11.4381 101.6C11.5848 101.293 11.6581 100.973 11.6581 100.64C11.6581 100.307 11.5915 100 11.4581 99.72C11.3381 99.4267 11.1181 99.1933 10.7981 99.02C10.4781 98.8333 10.0181 98.74 9.41813 98.74H5.83813V102.62ZM26.2775 102.58V105H16.4175V90.8H26.0975V93.22H19.1775V96.64H25.1575V98.88H19.1775V102.58H26.2775ZM37.4692 105V93.22H33.3092L33.2292 95.62C33.1626 97.5 33.0092 99.0533 32.7692 100.28C32.5292 101.507 32.1826 102.473 31.7292 103.18C31.2759 103.873 30.7026 104.367 30.0092 104.66C29.3292 104.94 28.5092 105.08 27.5492 105.08V102.7C28.0426 102.7 28.4692 102.593 28.8292 102.38C29.1892 102.167 29.4892 101.78 29.7292 101.22C29.9826 100.66 30.1826 99.8667 30.3292 98.84C30.4759 97.8133 30.5759 96.4867 30.6292 94.86L30.7692 90.8H40.2092V105H37.4692ZM53.8148 93.22H49.2748V105H46.5348V93.22H41.9948V90.8H53.8148V93.22ZM55.5777 105V90.8H61.5977C62.251 90.8 62.851 90.9333 63.3977 91.2C63.9443 91.4667 64.4177 91.8267 64.8177 92.28C65.231 92.7333 65.551 93.24 65.7777 93.8C66.0043 94.36 66.1177 94.9333 66.1177 95.52C66.1177 96.32 65.931 97.08 65.5577 97.8C65.1843 98.52 64.671 99.1067 64.0177 99.56C63.3643 100.013 62.591 100.24 61.6977 100.24H58.3377V105H55.5777ZM58.3377 97.82H61.5377C61.871 97.82 62.171 97.7267 62.4377 97.54C62.7043 97.3533 62.9177 97.0867 63.0777 96.74C63.2377 96.38 63.3177 95.9733 63.3177 95.52C63.3177 95.0267 63.2243 94.6067 63.0377 94.26C62.8643 93.9133 62.631 93.6533 62.3377 93.48C62.0577 93.3067 61.751 93.22 61.4177 93.22H58.3377V97.82ZM68.1386 105V90.8H70.8786V101.12L77.7586 90.8H80.3186V105H77.5786V94.8L70.7786 105H68.1386ZM83.4106 105V90.8H94.9106V105H92.1706V93.22H86.1506V105H83.4106Z" fill="black"/>
<defs>
<linearGradient id="paint0_linear_376_2083" x1="21.5994" y1="8.95131" x2="67.9219" y2="89.6809" gradientUnits="userSpaceOnUse">
<stop stop-color="#344E57"/>
<stop offset="0.239583" stop-color="#56747B"/>
<stop offset="0.802083" stop-color="#8BC63E"/>
<stop offset="1" stop-color="#223222"/>
</linearGradient>
<linearGradient id="paint1_linear_376_2083" x1="28.1134" y1="17.7941" x2="60.6436" y2="77.6017" gradientUnits="userSpaceOnUse">
<stop stop-color="#344E57"/>
<stop offset="0.239583" stop-color="#56747B"/>
<stop offset="0.802083" stop-color="#8BC63E"/>
<stop offset="1" stop-color="#223222"/>
</linearGradient>
<linearGradient id="paint2_linear_376_2083" x1="34.1132" y1="24.8683" x2="57.2744" y2="65.2331" gradientUnits="userSpaceOnUse">
<stop stop-color="#344E57"/>
<stop offset="0.239583" stop-color="#56747B"/>
<stop offset="0.802083" stop-color="#8BC63E"/>
<stop offset="1" stop-color="#223222"/>
</linearGradient>
</defs>
</svg>
