<svg width="158" height="493" viewBox="0 0 158 493" fill="none" xmlns="http://www.w3.org/2000/svg">
    <mask id="path-1-inside-1_271_2026" fill="white">
        <path d="M1.66959 492.814C48.1131 470.86 87.42 436.248 115.073 392.954C142.725 349.661 157.602 299.444 157.992 248.074C158.382 196.705 144.271 146.268 117.279 102.559C90.2878 58.8506 51.5115 23.6447 5.40699 0.987435L3.68882 4.48369C49.1355 26.8176 87.3584 61.5212 113.965 104.606C140.571 147.691 154.481 197.408 154.097 248.045C153.712 298.681 139.048 348.182 111.79 390.857C84.5315 433.533 45.7856 467.651 0.00474606 489.292L1.66959 492.814Z"/>
    </mask>
    <path d="M1.66959 492.814C48.1131 470.86 87.42 436.248 115.073 392.954C142.725 349.661 157.602 299.444 157.992 248.074C158.382 196.705 144.271 146.268 117.279 102.559C90.2878 58.8506 51.5115 23.6447 5.40699 0.987435L3.68882 4.48369C49.1355 489.292L1.66959 492.814Z" stroke="#F5F5F5" stroke-width="4" stroke-dasharray="20" mask="url(#path-1-inside-1_271_2026)"/>
</svg>
