<svg width="91" height="77" viewBox="0 0 91 77" fill="none" xmlns="http://www.w3.org/2000/svg">
<path opacity="0.7" d="M90.8571 38.5448L82.984 35.537L72.4263 21.4411L71.71 7.79298L46.4819 0.25L43.4402 6.8949H35.0317L32.8849 15.5151L27.518 19.4657L23.4029 29.3423L5.86703 34.0119L8.73018 52.5064L0.857117 59.1513L4.07727 70.824L18.2121 65.4379L36.9999 68.6696L41.6528 72.6202L59.7242 74.4164L72.2502 76.75L73.6806 65.9753L82.8055 62.2038L78.1526 48.0183L89.2459 47.8392L90.8571 38.5448ZM84.6869 47.4408L74.606 47.5987L78.8338 60.1578L70.5426 63.4956L69.2414 73.0351L57.8593 70.9678L41.4391 69.3791L37.2113 65.881L20.1405 63.0194L7.29508 67.788L4.36852 57.4541L11.5229 51.5729L8.92043 35.1999L24.8544 31.0678L28.5937 22.325L33.4721 18.827L35.4239 11.1968H43.0644L45.8289 5.31558L68.7529 11.9935L69.4035 24.0764L78.9959 36.5553L86.1502 39.2166L84.6869 47.4408Z" fill="url(#paint0_linear_634_2123)"/>
<defs>
<linearGradient id="paint0_linear_634_2123" x1="20.7102" y1="8.6449" x2="64.5902" y2="83.5936" gradientUnits="userSpaceOnUse">
<stop stop-color="#344E57"/>
<stop offset="0.239583" stop-color="#56747B"/>
<stop offset="0.802083" stop-color="#8BC63E"/>
<stop offset="1" stop-color="#223222"/>
</linearGradient>
</defs>
</svg>
