<svg width="180" height="153" viewBox="0 0 180 153" fill="none" xmlns="http://www.w3.org/2000/svg">
<path d="M180 76.5897L164.254 70.5753L143.142 42.3791L141.711 15.0843L91.2555 0L85.1713 13.2888H68.3529L64.0577 30.5273L53.3211 38.4293L45.0905 58.1831L10.022 67.5221L15.7464 104.514L0 117.803L6.4415 141.148L34.7112 130.375L72.2883 136.837L81.5932 144.739L117.736 148.331L142.785 153L145.649 131.451L163.899 123.907L154.594 95.5341L176.779 95.1755L180 76.5897ZM167.66 94.3831L147.5 94.7005L155.955 119.819L139.371 126.498L136.771 145.575L114.006 141.441L81.1659 138.262L72.7108 131.266L38.5694 125.543L12.8806 135.083L7.02819 114.416L21.3357 102.651L16.1327 69.9016L47.9998 61.6337L55.4771 44.1456L65.2311 37.1499L69.1327 21.8886H84.4156L89.9445 10.1241L135.793 23.4783L137.094 47.6423L156.279 72.6035L170.586 77.9297L167.66 94.3831Z" fill="url(#paint0_linear_634_2121)"/>
<defs>
<linearGradient id="paint0_linear_634_2121" x1="39.7062" y1="16.7898" x2="127.466" y2="166.687" gradientUnits="userSpaceOnUse">
<stop stop-color="#344E57"/>
<stop offset="0.239583" stop-color="#56747B"/>
<stop offset="0.802083" stop-color="#8BC63E"/>
<stop offset="1" stop-color="#223222"/>
</linearGradient>
</defs>
</svg>
