<svg width="138" height="111" viewBox="0 0 138 111" fill="none" xmlns="http://www.w3.org/2000/svg">
<path opacity="0.85" d="M137.571 55.564L125.575 51.2199L109.489 30.858L108.398 11.1435L69.9546 0.25L65.3187 9.84643H52.5052L49.2326 22.2978L41.0525 28.0054L34.7816 42.2708L8.06287 49.0146L12.4246 75.7315L0.428589 85.3279L5.33616 102.187L26.8756 94.405L55.5036 99.074L62.592 104.782L90.1283 107.376L109.215 110.75L111.396 95.1875L125.301 89.7408L118.213 69.2485L135.116 68.99L137.571 55.564ZM128.168 68.4162L112.807 68.6462L119.247 86.7886L106.613 91.6117L104.632 105.391L87.2894 102.406L62.268 100.11L55.8276 95.0571L29.8142 90.924L10.2412 97.8125L5.7823 82.8855L16.6841 74.3893L12.7212 50.7362L36.9998 44.7654L42.6975 32.1361L50.1299 27.083L53.1034 16.0591H64.748L68.9601 7.56292L103.891 17.2068L104.883 34.6591L119.501 52.6853L130.403 56.5315L128.168 68.4162Z" fill="url(#paint0_linear_634_2122)"/>
<defs>
<linearGradient id="paint0_linear_634_2122" x1="30.6809" y1="12.376" x2="92.3593" y2="123.514" gradientUnits="userSpaceOnUse">
<stop stop-color="#344E57"/>
<stop offset="0.239583" stop-color="#56747B"/>
<stop offset="0.802083" stop-color="#8BC63E"/>
<stop offset="1" stop-color="#223222"/>
</linearGradient>
</defs>
</svg>
